<svg width="40" height="40" viewBox="0 0 40 40" fill="none" xmlns="http://www.w3.org/2000/svg">
<g clip-path="url(#clip0_8860_548)">
<path d="M40 20C40 31.0456 31.0456 40 20 40C8.95436 40 0 31.0458 0 20C0 8.95417 8.95436 0 20 0C31.0456 0 40 8.95436 40 20Z" fill="white"/>
<path d="M0 19.9999C0 23.6363 0.970704 27.0459 2.66659 29.9841V10.0158C0.970704 12.954 0 16.3636 0 19.9999Z" fill="#BF0A30"/>
<path d="M5.33337 6.40263V33.5971C6.14792 34.4755 7.04065 35.2804 7.99996 36.0011V3.99885C7.04045 4.71951 6.14792 5.52444 5.33337 6.40282V6.40263Z" fill="#BF0A30"/>
<path d="M10.6667 2.30689V37.6932C11.5208 38.1448 12.4115 38.536 13.3333 38.8619V1.1382C12.4115 1.46406 11.5208 1.85552 10.6667 2.30689Z" fill="#BF0A30"/>
<path d="M16.0001 0.40025V39.5998C16.8699 39.7764 17.76 39.8964 18.6667 39.9562V0.0439453C17.76 0.103657 16.8697 0.223669 16.0001 0.40025Z" fill="#BF0A30"/>
<path d="M21.3333 0.0439453V39.956C22.24 39.8962 23.1303 39.7762 23.9999 39.5996V0.40025C23.1301 0.223669 22.24 0.103657 21.3333 0.0439453Z" fill="#BF0A30"/>
<path d="M26.6667 1.1382V38.8619C27.5885 38.536 28.4792 38.1446 29.3333 37.6932V2.30689C28.4792 1.85532 27.5885 1.46406 26.6667 1.1382Z" fill="#BF0A30"/>
<path d="M32 36.0012C32.9595 35.2806 33.8521 34.4757 34.6666 33.5973V6.40263C33.8521 5.52424 32.9594 4.71931 32 3.99865V36.0012Z" fill="#BF0A30"/>
<path d="M37.3334 29.9841C39.0295 27.0459 40 23.6365 40 19.9999C40 16.3634 39.0293 12.954 37.3334 10.0158V29.9841Z" fill="#BF0A30"/>
<path opacity="0.33" d="M40 20C40 31.0456 31.0456 40 20 40C8.95436 40 0 31.0458 0 20C0 8.95417 8.95436 0 20 0C31.0456 0 40 8.95436 40 20Z" fill="black"/>
<path opacity="0.17" d="M20.0022 30.6066C11.0629 30.6066 5.32748 24.4783 0 19.9998C0 31.0458 8.95436 40 20 40C31.0456 40 39.998 31.0476 40 20.0035C34.9671 24.4783 28.9371 30.6066 20.0022 30.6066Z" fill="black"/>
<path d="M19.9955 32.0752L10.1746 22.2608L19.9955 8.79956L29.8165 22.2608L19.9955 32.0752Z" fill="#002868"/>
<path opacity="0.17" d="M20 0C8.95436 0 0 8.95436 0 20C0 31.0456 8.95436 40 20 40C31.0456 40 40 31.0456 40 20C40 8.95436 31.0458 0 20 0ZM20 37.643C10.256 37.643 2.35703 29.744 2.35703 20C2.35703 10.256 10.256 2.35703 20 2.35703C29.744 2.35703 37.643 10.256 37.643 20C37.643 29.744 29.744 37.643 20 37.643Z" fill="#BF0A30"/>
<path opacity="0.1" d="M19.9978 9.39336C28.9371 9.39336 34.6725 15.5216 40 20.0002C40 8.95436 31.0458 0 20 0C8.95417 0 0.00196419 8.9524 0 19.9965C5.03285 15.5216 11.0629 9.39336 19.9978 9.39336Z" fill="white"/>
<path d="M37.3241 20L20 37.6777L2.67578 20H8.73924L20 31.4905L31.2607 20H37.3241Z" fill="white"/>
<path d="M35.3999 28.6155C35.2019 28.9688 34.9919 29.3145 34.7707 29.6524L20 9.39331L5.22947 29.6524C5.0083 29.3145 4.79833 28.9688 4.60034 28.6155L19.9796 2.35718C19.9865 2.35718 19.9931 2.35718 20 2.35718C20.0069 2.35718 20.0136 2.35718 20.0204 2.35718L35.3999 28.6157V28.6155Z" fill="white"/>
<path d="M20 9.39336C18.0474 9.39336 16.4645 7.81042 16.4645 5.85781C16.4645 3.90521 18.0474 2.32227 20 2.32227C21.9526 2.32227 23.5356 3.90521 23.5356 5.85781C23.5356 7.81042 21.9526 9.39336 20 9.39336Z" fill="white"/>
<path d="M20.0098 6.34896L21.4193 8.45064C20.9886 8.66671 20.5187 8.8042 20.0098 8.8042C19.5009 8.8042 19.0114 8.68635 18.6003 8.45064L20.0098 6.34896ZM20.0098 2.91162C18.3654 2.91162 17.0537 4.22763 17.0537 5.85791C17.0537 6.82037 17.4845 7.64533 18.1892 8.1953L19.7553 5.85791H18.2087V5.36686H19.7747V4.87581H18.2087V4.38477H21.8108V4.87581H20.2447V5.36686H21.8108V5.85791H20.2447L21.8108 8.1953C22.5155 7.64533 22.9463 6.82037 22.9463 5.85791C22.9463 4.22763 21.6152 2.91162 20.0098 2.91162Z" fill="url(#paint0_linear_8860_548)"/>
<path d="M24.9104 23.3871H15.0895L20 13.959L24.9104 23.3871Z" fill="white"/>
<path fill-rule="evenodd" clip-rule="evenodd" d="M20 21.3246C21.1746 21.3246 22.326 20.6998 22.6517 19.8851C22.326 19.0705 21.4655 18.3674 20 18.3785C18.5346 18.3785 17.6507 19.1373 17.3484 19.8851C17.6507 20.6217 18.8255 21.3246 20 21.3246ZM21.0214 19.8515C21.0214 20.4156 20.5641 20.8729 20 20.8729C19.436 20.8729 18.9787 20.4156 18.9787 19.8515C18.9787 19.2874 19.436 18.8301 20 18.8301C20.5641 18.8301 21.0214 19.2874 21.0214 19.8515Z" fill="url(#paint1_linear_8860_548)"/>
<path fill-rule="evenodd" clip-rule="evenodd" d="M20.0099 12.0425C20.1021 12.0425 20.1769 12.1173 20.1769 12.2095V13.0738C20.1769 13.166 20.1021 13.2408 20.0099 13.2408C19.9176 13.2408 19.8428 13.166 19.8428 13.0738V12.2095C19.8428 12.1173 19.9176 12.0425 20.0099 12.0425ZM20.7581 13.0227C20.8496 13.0339 20.9148 13.1172 20.9036 13.2087L20.8447 13.6912C20.8335 13.7827 20.7502 13.8479 20.6586 13.8367C20.567 13.8255 20.5019 13.7422 20.5131 13.6506L20.572 13.1682C20.5832 13.0767 20.6665 13.0115 20.7581 13.0227ZM19.2428 13.0295C19.3344 13.0184 19.4177 13.0835 19.4289 13.1751L19.4878 13.6573C19.499 13.7489 19.4339 13.8322 19.3423 13.8434C19.2507 13.8546 19.1674 13.7894 19.1562 13.6978L19.0973 13.2156C19.0861 13.124 19.1512 13.0407 19.2428 13.0295ZM18.6278 13.7649C18.7126 13.7285 18.8108 13.7676 18.8473 13.8523L19.0634 14.3544C19.0998 14.4391 19.0607 14.5374 18.976 14.5739C18.8912 14.6104 18.793 14.5712 18.7565 14.4865L18.5404 13.9844C18.5039 13.8997 18.5431 13.8014 18.6278 13.7649ZM21.6092 14.0057C21.688 14.0537 21.713 14.1564 21.665 14.2352L21.39 14.687C21.342 14.7658 21.2393 14.7908 21.1605 14.7429C21.0816 14.6949 21.0566 14.5921 21.1046 14.5133L21.3796 14.0615C21.4276 13.9827 21.5304 13.9577 21.6092 14.0057ZM18.0176 14.6188C18.0894 14.5609 18.1946 14.5722 18.2525 14.644L18.6257 15.1067C18.6836 15.1786 18.6724 15.2837 18.6005 15.3416C18.5287 15.3996 18.4236 15.3883 18.3656 15.3165L17.9924 14.8537C17.9345 14.7819 17.9458 14.6767 18.0176 14.6188ZM22.3102 15.0159C22.3743 15.0822 22.3726 15.1879 22.3063 15.2521L21.8553 15.6885C21.789 15.7527 21.6833 15.751 21.6191 15.6847C21.5549 15.6184 21.5567 15.5126 21.623 15.4485L22.074 15.012C22.1403 14.9479 22.246 14.9496 22.3102 15.0159ZM17.4332 15.375C17.4966 15.308 17.6023 15.3049 17.6694 15.3683L18.18 15.8507C18.2471 15.9141 18.2501 16.0198 18.1868 16.0869C18.1234 16.1539 18.0177 16.1569 17.9506 16.0936L17.4399 15.6112C17.3729 15.5478 17.3698 15.4421 17.4332 15.375ZM22.9876 15.9678C23.0463 16.039 23.0362 16.1443 22.965 16.203L22.3561 16.705C22.2849 16.7637 22.1796 16.7536 22.121 16.6824C22.0623 16.6112 22.0724 16.5059 22.1436 16.4472L22.7525 15.9452C22.8237 15.8865 22.9289 15.8966 22.9876 15.9678ZM16.8995 16.1251C16.9608 16.0562 17.0663 16.05 17.1353 16.1113L17.7442 16.6526C17.8132 16.7139 17.8194 16.8195 17.7581 16.8885C17.6968 16.9574 17.5912 16.9636 17.5222 16.9023L16.9133 16.361C16.8444 16.2997 16.8382 16.1941 16.8995 16.1251ZM23.6238 16.8322C23.677 16.9076 23.659 17.0118 23.5836 17.065L22.8215 17.6026C22.7461 17.6558 22.6419 17.6378 22.5887 17.5624C22.5355 17.487 22.5535 17.3828 22.6289 17.3296L23.391 16.792C23.4664 16.7388 23.5706 16.7568 23.6238 16.8322ZM16.2602 16.9831C16.3141 16.9083 16.4185 16.8913 16.4934 16.9452L17.2948 17.522C17.3696 17.5759 17.3866 17.6803 17.3327 17.7552C17.2788 17.8301 17.1744 17.8471 17.0996 17.7932L16.2982 17.2163C16.2233 17.1624 16.2063 17.058 16.2602 16.9831ZM24.3254 17.8122C24.3653 17.8954 24.3302 17.9952 24.247 18.0351L23.2649 18.5065C23.1818 18.5464 23.082 18.5114 23.0421 18.4282C23.0021 18.345 23.0372 18.2452 23.1204 18.2053L24.1025 17.7339C24.1856 17.694 24.2854 17.729 24.3254 17.8122ZM15.5982 17.9096C15.6394 17.827 15.7398 17.7936 15.8223 17.8348L16.8437 18.3455C16.9262 18.3868 16.9596 18.4871 16.9184 18.5697C16.8771 18.6522 16.7768 18.6856 16.6942 18.6444L15.6729 18.1337C15.5903 18.0924 15.5569 17.9921 15.5982 17.9096ZM25.0391 18.778C25.0696 18.8651 25.0237 18.9604 24.9367 18.9909L23.7581 19.4033C23.6711 19.4338 23.5758 19.3879 23.5453 19.3009C23.5148 19.2138 23.5607 19.1185 23.6478 19.088L24.8263 18.6755C24.9134 18.645 25.0087 18.6909 25.0391 18.778ZM14.9235 18.8564C14.9556 18.7699 15.0517 18.7258 15.1382 18.7579L16.356 19.2096C16.4426 19.2417 16.4867 19.3379 16.4546 19.4244C16.4225 19.5109 16.3263 19.555 16.2398 19.5229L15.022 19.0711C14.9355 19.039 14.8914 18.9429 14.9235 18.8564ZM14.2433 19.8444C14.2616 19.7539 14.3498 19.6955 14.4402 19.7138L15.8937 20.0085C15.9841 20.0268 16.0426 20.1149 16.0242 20.2054C16.0059 20.2958 15.9178 20.3542 15.8273 20.3359L14.3738 20.0413C14.2834 20.0229 14.225 19.9348 14.2433 19.8444ZM25.7576 19.8471C25.7759 19.9375 25.7175 20.0257 25.6271 20.044L24.1736 20.3387C24.0831 20.357 23.995 20.2985 23.9767 20.2081C23.9583 20.1177 24.0168 20.0295 24.1072 20.0112L25.5607 19.7166C25.6511 19.6982 25.7393 19.7567 25.7576 19.8471ZM13.46 20.8941C13.4693 20.8023 13.5513 20.7354 13.6431 20.7447L15.3912 20.9215C15.483 20.9308 15.5499 21.0127 15.5406 21.1045C15.5313 21.1963 15.4494 21.2632 15.3576 21.2539L13.6094 21.0771C13.5176 21.0678 13.4508 20.9859 13.46 20.8941ZM26.5409 20.9104C26.5501 21.0022 26.4832 21.0841 26.3915 21.0934L24.6433 21.2702C24.5515 21.2795 24.4696 21.2126 24.4603 21.1208C24.451 21.029 24.5179 20.9471 24.6097 20.9378L26.3578 20.761C26.4496 20.7517 26.5316 20.8186 26.5409 20.9104ZM27.2985 22.0019C27.2998 22.0941 27.226 22.1699 27.1338 22.1712L25.061 22.2001C24.9687 22.2014 24.8929 22.1276 24.8916 22.0354C24.8903 21.9431 24.9641 21.8673 25.0563 21.866L27.1291 21.8371C27.2214 21.8359 27.2972 21.9096 27.2985 22.0019ZM12.7024 22.0085C12.7037 21.9163 12.7795 21.8425 12.8718 21.8438L14.9446 21.8727C15.0368 21.874 15.1106 21.9498 15.1093 22.0421C15.108 22.1343 15.0322 22.2081 14.9399 22.2068L12.8671 22.1779C12.7749 22.1766 12.7011 22.1008 12.7024 22.0085ZM25.5005 23.129C25.5028 23.0367 25.5793 22.9638 25.6716 22.966L26.1037 22.9764C26.1959 22.9786 26.2689 23.0552 26.2667 23.1474C26.2644 23.2397 26.1879 23.3126 26.0956 23.3104L25.6635 23.3C25.5713 23.2978 25.4983 23.2212 25.5005 23.129ZM14.5004 23.1357C14.5026 23.2279 14.4296 23.3045 14.3374 23.3067L13.9053 23.3171C13.813 23.3193 13.7365 23.2463 13.7342 23.1541C13.732 23.0619 13.805 22.9853 13.8972 22.9831L14.3293 22.9727C14.4216 22.9705 14.4981 23.0434 14.5004 23.1357ZM22.3701 24.0411C22.4601 24.0208 22.5495 24.0772 22.5699 24.1672L23.0413 26.2492C23.0617 26.3392 23.0053 26.4287 22.9153 26.4491C22.8253 26.4694 22.7358 26.413 22.7155 26.323L22.244 24.241C22.2237 24.151 22.2801 24.0615 22.3701 24.0411ZM21.2289 24.0376C21.3209 24.0298 21.4018 24.0979 21.4096 24.1898L21.7043 27.6271C21.7121 27.7191 21.644 27.8 21.5521 27.8079C21.4602 27.8157 21.3793 27.7476 21.3714 27.6557L21.0767 24.2183C21.0689 24.1264 21.137 24.0455 21.2289 24.0376ZM24.7031 24.0704C24.7769 24.0151 24.8816 24.03 24.9369 24.1038L24.9959 24.1824C25.0512 24.2562 25.0363 24.3609 24.9625 24.4163C24.8886 24.4716 24.7839 24.4567 24.7286 24.3829L24.6696 24.3043C24.6143 24.2305 24.6293 24.1258 24.7031 24.0704ZM17.6308 24.0478C17.7208 24.0682 17.7772 24.1577 17.7569 24.2476L17.2854 26.3297C17.2651 26.4197 17.1756 26.4761 17.0856 26.4557C16.9956 26.4354 16.9392 26.3459 16.9596 26.2559L17.431 24.1739C17.4514 24.0839 17.5408 24.0274 17.6308 24.0478ZM15.2978 24.0771C15.3716 24.1325 15.3866 24.2372 15.3312 24.311L15.2723 24.3896C15.217 24.4634 15.1123 24.4783 15.0384 24.423C14.9646 24.3676 14.9497 24.2629 15.005 24.1891L15.064 24.1105C15.1193 24.0367 15.224 24.0218 15.2978 24.0771ZM18.772 24.0443C18.8639 24.0522 18.932 24.1331 18.9241 24.225L18.6295 27.6624C18.6216 27.7543 18.5407 27.8224 18.4488 27.8145C18.3569 27.8067 18.2888 27.7257 18.2966 27.6338L18.5913 24.1965C18.5991 24.1046 18.68 24.0364 18.772 24.0443ZM20.0001 24.0437C20.0923 24.0437 20.1671 24.1185 20.1671 24.2108V29.1212C20.1671 29.2135 20.0923 29.2883 20.0001 29.2883C19.9078 29.2883 19.833 29.2135 19.833 29.1212V24.2108C19.833 24.1185 19.9078 24.0437 20.0001 24.0437ZM23.588 24.088C23.6739 24.0541 23.7709 24.0962 23.8047 24.1821L24.1534 25.0659C24.1872 25.1518 24.1451 25.2488 24.0593 25.2826C23.9734 25.3165 23.8764 25.2744 23.8426 25.1885L23.4939 24.3047C23.4601 24.2188 23.5022 24.1218 23.588 24.088ZM16.4129 24.0946C16.4987 24.1285 16.5408 24.2255 16.507 24.3113L16.1583 25.1952C16.1245 25.281 16.0275 25.3232 15.9416 25.2893C15.8558 25.2555 15.8137 25.1585 15.8475 25.0726L16.1962 24.1887C16.23 24.1029 16.327 24.0608 16.4129 24.0946Z" fill="white"/>
</g>
<defs>
<linearGradient id="paint0_linear_8860_548" x1="20" y1="2.91162" x2="20" y2="8.8042" gradientUnits="userSpaceOnUse">
<stop stop-color="#DFBD69"/>
<stop offset="1" stop-color="#926F34"/>
</linearGradient>
<linearGradient id="paint1_linear_8860_548" x1="17.3439" y1="19.858" x2="22.6472" y2="19.858" gradientUnits="userSpaceOnUse">
<stop stop-color="#DFBD69"/>
<stop offset="1" stop-color="#926F34"/>
</linearGradient>
<clipPath id="clip0_8860_548">
<rect width="40" height="40" fill="white"/>
</clipPath>
</defs>
</svg>
